ffmpeg version 3.4.8-0ubuntu0.2 Copyright (c) 2000-2020 the FFmpeg developers
  built with gcc 7 (Ubuntu 7.5.0-3ubuntu1~18.04)
  configuration: --prefix=/usr --extra-version=0ubuntu0.2 --toolchain=hardened --libdir=/usr/lib/x86_64-linux-gnu --incdir=/usr/include/x86_64-linux-gnu --enable-gpl --disable-stripping --enable-avresample --enable-avisynth --enable-gnutls --enable-ladspa --enable-libass --enable-libbluray --enable-libbs2b --enable-libcaca --enable-libcdio --enable-libflite --enable-libfontconfig --enable-libfreetype --enable-libfribidi --enable-libgme --enable-libgsm --enable-libmp3lame --enable-libmysofa --enable-libopenjpeg --enable-libopenmpt --enable-libopus --enable-libpulse --enable-librubberband --enable-librsvg --enable-libshine --enable-libsnappy --enable-libsoxr --enable-libspeex --enable-libssh --enable-libtheora --enable-libtwolame --enable-libvorbis --enable-libvpx --enable-libwavpack --enable-libwebp --enable-libx265 --enable-libxml2 --enable-libxvid --enable-libzmq --enable-libzvbi --enable-omx --enable-openal --enable-opengl --enable-sdl2 --enable-libdc1394 --enable-libdrm --enable-libiec61883 --enable-chromaprint --enable-frei0r --enable-libopencv --enable-libx264 --enable-shared
  libavutil      55. 78.100 / 55. 78.100
  libavcodec     57.107.100 / 57.107.100
  libavformat    57. 83.100 / 57. 83.100
  libavdevice    57. 10.100 / 57. 10.100
  libavfilter     6.107.100 /  6.107.100
  libavresample   3.  7.  0 /  3.  7.  0
  libswscale      4.  8.100 /  4.  8.100
  libswresample   2.  9.100 /  2.  9.100
  libpostproc    54.  7.100 / 54.  7.100
[rawvideo @ 0x55efac0e9a20] Estimating duration from bitrate, this may be inaccurate
Input #0, rawvideo, from '../../SVC-Encoder-20220109T061506Z-001/SVC-Encoder/Dataset/RollerCoaster/ERP_8x8/tile_yuv/Tile_52_480x240.yuv':
  Duration: 00:00:10.00, start: 0.000000, bitrate: 41472 kb/s
    Stream #0:0: Video: rawvideo (I420 / 0x30323449), yuv420p, 480x240, 41472 kb/s, 30 tbr, 30 tbn, 30 tbc
Stream mapping:
  Stream #0:0 -> #0:0 (rawvideo (native) -> h264 (libx264))
Press [q] to stop, [?] for help
[libx264 @ 0x55efac0f6c60] using cpu capabilities: MMX2 SSE2Fast LZCNT SSSE3 SSE4.2 AVX
[libx264 @ 0x55efac0f6c60] profile High, level 2.1
Output #0, rawvideo, to 'RollerCoaster_Tile_52_480x240_x264_QP_36.h264':
  Metadata:
    encoder         : Lavf57.83.100
    Stream #0:0: Video: h264 (libx264), yuv420p, 480x240, q=-1--1, 30 fps, 30 tbn, 30 tbc
    Metadata:
      encoder         : Lavc57.107.100 libx264
    Side data:
      cpb: bitrate max/min/avg: 0/0/0 buffer size: 0 vbv_delay: -1
frame=  300 fps=0.0 q=42.0 LPSNR=Y:inf U:inf V:inf *:inf size=      21kB time=00:00:09.93 bitrate=  17.6kbits/s speed=24.2x    
video:21kB audio:0kB subtitle:0kB other streams:0kB global headers:0kB muxing overhead: 0.000000%
[libx264 @ 0x55efac0f6c60] frame I:2     Avg QP:33.88  size:  1714  PSNR Mean Y:42.80 U:44.43 V:43.90 Avg:43.20 Global:43.16
[libx264 @ 0x55efac0f6c60] frame P:76    Avg QP:34.58  size:   129  PSNR Mean Y:41.86 U:44.19 V:43.58 Avg:42.41 Global:42.39
[libx264 @ 0x55efac0f6c60] frame B:222   Avg QP:41.54  size:    39  PSNR Mean Y:41.38 U:44.09 V:43.52 Avg:42.03 Global:42.00
[libx264 @ 0x55efac0f6c60] consecutive B-frames:  0.7%  1.3%  2.0% 96.0%
[libx264 @ 0x55efac0f6c60] mb I  I16..4:  6.3% 84.6%  9.1%
[libx264 @ 0x55efac0f6c60] mb P  I16..4:  0.4%  0.8%  0.0%  P16..4: 14.8%  0.5%  0.1%  0.0%  0.0%    skip:83.4%
[libx264 @ 0x55efac0f6c60] mb B  I16..4:  0.0%  0.0%  0.0%  B16..8:  4.5%  0.0%  0.0%  direct: 0.0%  skip:95.4%  L0:40.2% L1:59.8% BI: 0.0%
[libx264 @ 0x55efac0f6c60] 8x8 transform intra:78.2% inter:93.1%
[libx264 @ 0x55efac0f6c60] coded y,uvDC,uvAC intra: 9.2% 20.9% 6.8% inter: 0.1% 0.4% 0.0%
[libx264 @ 0x55efac0f6c60] i16 v,h,dc,p: 45% 38% 13%  3%
[libx264 @ 0x55efac0f6c60] i8 v,h,dc,ddl,ddr,vr,hd,vl,hu: 40% 25% 32%  0%  0%  0%  2%  0%  1%
[libx264 @ 0x55efac0f6c60] i4 v,h,dc,ddl,ddr,vr,hd,vl,hu:  8% 34% 20%  0%  8%  1% 25%  0%  3%
[libx264 @ 0x55efac0f6c60] i8c dc,h,v,p: 86% 10%  2%  1%
[libx264 @ 0x55efac0f6c60] Weighted P-Frames: Y:0.0% UV:0.0%
[libx264 @ 0x55efac0f6c60] ref P L0: 60.2% 17.4% 15.8%  6.6%
[libx264 @ 0x55efac0f6c60] ref B L0: 64.8% 28.6%  6.6%
[libx264 @ 0x55efac0f6c60] ref B L1: 79.4% 20.6%
[libx264 @ 0x55efac0f6c60] PSNR Mean Y:41.507 U:44.122 V:43.539 Avg:42.135 Global:42.103 kb/s:17.52
